<svg xmlns="http://www.w3.org/2000/svg" viewBox="0 0 20 20" shape-rendering="crispEdges"><rect width="20" height="20" fill="#374238"/><rect class="signal" x="12" y="1" width="1" height="1" fill="#5fae92"/><rect class="beacon" x="14" y="1" width="1" height="1" fill="#7ee2c0"/><rect class="signal" x="16" y="1" width="1" height="1" fill="#5fae92"/><rect x="9" y="2" width="2" height="1" fill="#d9774f"/><rect class="signal" x="11" y="2" width="1" height="1" fill="#5fae92"/><rect x="14" y="2" width="1" height="1" fill="#b9ae9c"/><rect class="signal" x="17" y="2" width="1" height="1" fill="#5fae92"/><rect x="8" y="3" width="4" height="1" fill="#d9774f"/><rect x="14" y="3" width="1" height="1" fill="#b9ae9c"/><rect x="7" y="4" width="6" height="1" fill="#d9774f"/><rect x="14" y="4" width="1" height="1" fill="#b9ae9c"/><rect x="6" y="5" width="8" height="1" fill="#d9774f"/><rect x="14" y="5" width="1" height="1" fill="#b9ae9c"/><rect x="5" y="6" width="10" height="1" fill="#d9774f"/><rect x="4" y="7" width="12" height="1" fill="#d9774f"/><rect x="3" y="8" width="14" height="1" fill="#a6573d"/><rect x="4" y="9" width="1" height="1" fill="#f6eedd"/><rect x="5" y="9" width="1" height="1" fill="#e7dac2"/><rect x="6" y="9" width="1" height="1" fill="#f6eedd"/><rect x="7" y="9" width="1" height="1" fill="#e7dac2"/><rect x="8" y="9" width="1" height="1" fill="#f6eedd"/><rect x="9" y="9" width="1" height="1" fill="#e7dac2"/><rect x="10" y="9" width="1" height="1" fill="#f6eedd"/><rect x="11" y="9" width="1" height="1" fill="#e7dac2"/><rect x="12" y="9" width="1" height="1" fill="#f6eedd"/><rect x="13" y="9" width="1" height="1" fill="#e7dac2"/><rect x="14" y="9" width="1" height="1" fill="#f6eedd"/><rect x="15" y="9" width="1" height="1" fill="#e7dac2"/><rect x="4" y="10" width="1" height="1" fill="#f6eedd"/><rect x="5" y="10" width="1" height="1" fill="#e7dac2"/><rect x="6" y="10" width="8" height="1" fill="#8a5a3c"/><rect x="14" y="10" width="1" height="1" fill="#f6eedd"/><rect x="15" y="10" width="1" height="1" fill="#e7dac2"/><rect x="4" y="11" width="1" height="1" fill="#f6eedd"/><rect x="5" y="11" width="1" height="1" fill="#e7dac2"/><rect x="6" y="11" width="1" height="1" fill="#8a5a3c"/><rect x="7" y="11" width="6" height="1" fill="#1e1c19"/><rect x="13" y="11" width="1" height="1" fill="#8a5a3c"/><rect x="14" y="11" width="1" height="1" fill="#f6eedd"/><rect x="15" y="11" width="1" height="1" fill="#e7dac2"/><rect x="4" y="12" width="1" height="1" fill="#f6eedd"/><rect x="5" y="12" width="1" height="1" fill="#e7dac2"/><rect x="6" y="12" width="1" height="1" fill="#8a5a3c"/><rect x="7" y="12" width="1" height="1" fill="#1e1c19"/><rect class="eye" x="8" y="12" width="1" height="1" fill="#7ee2c0"/><rect x="9" y="12" width="2" height="1" fill="#1e1c19"/><rect class="eye" x="11" y="12" width="1" height="1" fill="#7ee2c0"/><rect x="12" y="12" width="1" height="1" fill="#1e1c19"/><rect x="13" y="12" width="1" height="1" fill="#8a5a3c"/><rect x="14" y="12" width="1" height="1" fill="#f6eedd"/><rect x="15" y="12" width="1" height="1" fill="#e7dac2"/><rect x="4" y="13" width="1" height="1" fill="#f6eedd"/><rect x="5" y="13" width="1" height="1" fill="#e7dac2"/><rect x="6" y="13" width="1" height="1" fill="#8a5a3c"/><rect x="7" y="13" width="6" height="1" fill="#1e1c19"/><rect x="13" y="13" width="1" height="1" fill="#8a5a3c"/><rect x="14" y="13" width="1" height="1" fill="#f6eedd"/><rect x="15" y="13" width="1" height="1" fill="#e7dac2"/><rect x="4" y="14" width="1" height="1" fill="#f6eedd"/><rect x="5" y="14" width="1" height="1" fill="#e7dac2"/><rect x="6" y="14" width="1" height="1" fill="#8a5a3c"/><rect x="7" y="14" width="6" height="1" fill="#1e1c19"/><rect x="13" y="14" width="1" height="1" fill="#8a5a3c"/><rect x="14" y="14" width="1" height="1" fill="#f6eedd"/><rect x="15" y="14" width="1" height="1" fill="#e7dac2"/><rect x="4" y="15" width="1" height="1" fill="#f6eedd"/><rect x="5" y="15" width="1" height="1" fill="#e7dac2"/><rect x="6" y="15" width="1" height="1" fill="#8a5a3c"/><rect x="7" y="15" width="6" height="1" fill="#1e1c19"/><rect x="13" y="15" width="1" height="1" fill="#8a5a3c"/><rect x="14" y="15" width="1" height="1" fill="#f6eedd"/><rect x="15" y="15" width="1" height="1" fill="#e7dac2"/><rect x="3" y="16" width="14" height="1" fill="#2a3229"/></svg>
